<?xml version="1.0" encoding="UTF-8" standalone="no"?>
<!-- Created with Inkscape (http://www.inkscape.org/) -->

<svg
   xmlns:dc="http://purl.org/dc/elements/1.1/"
   xmlns:cc="http://creativecommons.org/ns#"
   xmlns:rdf="http://www.w3.org/1999/02/22-rdf-syntax-ns#"
   xmlns:svg="http://www.w3.org/2000/svg"
   xmlns="http://www.w3.org/2000/svg"
   xmlns:sodipodi="http://sodipodi.sourceforge.net/DTD/sodipodi-0.dtd"
   xmlns:inkscape="http://www.inkscape.org/namespaces/inkscape"
   width="998.12701"
   height="604.71442"
   id="svg2"
   version="1.1"
   inkscape:version="0.48.4 r9939"
   sodipodi:docname="tahrir-logo-v6.svg">
  <defs
     id="defs4">
    <inkscape:perspective
       sodipodi:type="inkscape:persp3d"
       inkscape:vp_x="0 : 404.39682 : 1"
       inkscape:vp_y="0 : 1000 : 0"
       inkscape:vp_z="1007.2443 : 404.39682 : 1"
       inkscape:persp3d-origin="503.62216 : 269.59788 : 1"
       id="perspective3915" />
  </defs>
  <sodipodi:namedview
     id="base"
     pagecolor="#ffffff"
     bordercolor="#666666"
     borderopacity="1.0"
     inkscape:pageopacity="0.0"
     inkscape:pageshadow="2"
     inkscape:zoom="0.5"
     inkscape:cx="403.36313"
     inkscape:cy="396.56068"
     inkscape:document-units="px"
     inkscape:current-layer="layer1"
     showgrid="false"
     showguides="false"
     inkscape:guide-bbox="true"
     fit-margin-top="0"
     fit-margin-left="0"
     fit-margin-right="0"
     fit-margin-bottom="0"
     inkscape:window-width="1589"
     inkscape:window-height="840"
     inkscape:window-x="0"
     inkscape:window-y="27"
     inkscape:window-maximized="1">
    <sodipodi:guide
       orientation="0,1"
       position="-101.94577,445.23165"
       id="guide3855" />
    <sodipodi:guide
       orientation="0,1"
       position="5.1970846,599.51737"
       id="guide3857" />
    <sodipodi:guide
       orientation="0,1"
       position="562.33995,253.80308"
       id="guide3859" />
    <sodipodi:guide
       orientation="1,0"
       position="505.19709,305.23165"
       id="guide3861" />
  </sodipodi:namedview>
  <metadata
     id="metadata7">
    <rdf:RDF>
      <cc:Work
         rdf:about="">
        <dc:format>image/svg+xml</dc:format>
        <dc:type
           rdf:resource="http://purl.org/dc/dcmitype/StillImage" />
        <dc:title></dc:title>
      </cc:Work>
    </rdf:RDF>
  </metadata>
  <g
     inkscape:label="Layer 1"
     inkscape:groupmode="layer"
     id="layer1"
     transform="translate(135.19709,-328.59366)">
    <path
       style="fill:#ffffff;stroke:#000000;stroke-width:10.39417458;stroke-miterlimit:4;stroke-opacity:1"
       d="m 776.10692,691.72644 c 0,143.17525 -181.82027,236.38457 -406.10692,236.38457 -224.28666,0 -406.106922,-93.20932 -406.106922,-236.38457 0,-65.29754 37.818131,-102.09938 100.23518,-147.68123 C 70.545623,539.35875 -130,333.79075 -130,333.79075 l 132.132678,0 c 0,0 155.239042,166.50385 172.082032,160.85787 56.34144,-18.88635 120.48535,-29.57202 188.53893,-29.57202 58.39286,0 113.90728,7.86718 164.0841,22.03173 11.90532,3.36079 216.27895,-153.31758 216.27895,-153.31758 l 114.20683,0 c 0,0 -199.62806,197.18602 -183.67662,208.64315 63.74208,45.78282 102.46002,83.22276 102.46002,149.29254 z"
       id="path3870"
       inkscape:connector-curvature="0"
       sodipodi:nodetypes="ssssccssscccs" />
    <path
       sodipodi:nodetypes="ssssccssscccs"
       inkscape:connector-curvature="0"
       id="path3983"
       d="m 776.10692,691.72644 c 0,143.17525 -181.82027,236.38457 -406.10692,236.38457 -224.28666,0 -406.106922,-93.20932 -406.106922,-236.38457 0,-65.29754 37.818131,-102.09938 100.23518,-147.68123 C 70.545623,539.35875 -130,333.79075 -130,333.79075 l 132.132678,0 c 0,0 155.239042,166.50385 172.082032,160.85787 56.34144,-18.88635 120.48535,-29.57202 188.53893,-29.57202 58.39286,0 113.90728,7.86718 164.0841,22.03173 11.90532,3.36079 216.27895,-153.31758 216.27895,-153.31758 l 114.20683,0 c 0,0 -199.62806,197.18602 -183.67662,208.64315 63.74208,45.78282 102.46002,83.22276 102.46002,149.29254 z"
       style="fill:#ffffff;stroke:#000000;stroke-width:10.39417458;stroke-miterlimit:4;stroke-opacity:1" />
    <path
       style="fill:#ffffff;stroke:#000000;stroke-width:9.35475731;stroke-miterlimit:4;stroke-opacity:1"
       d="m 734.8624,685.64888 c 0,128.85773 -163.63824,212.74612 -365.49622,212.74612 -201.858,0 -365.4962338,-83.88839 -365.4962338,-212.74612 0,-58.76778 34.0363178,-91.88944 90.2116618,-132.9131 5.775629,-4.21782 -174.715432,-189.22902 -174.715432,-189.22902 l 118.91941,0 c 0,0 139.715134,149.85347 154.873824,144.77209 50.7073,-16.99772 108.43682,-26.61482 169.68504,-26.61482 52.55358,0 102.51655,7.08046 147.67569,19.82855 10.71479,3.02472 194.65106,-137.98582 194.65106,-137.98582 l 102.78614,0 c 0,0 -179.66525,177.46742 -165.30895,187.77884 57.36787,41.20454 92.21401,74.90048 92.21401,134.36328 z"
       id="path4097"
       inkscape:connector-curvature="0"
       sodipodi:nodetypes="ssssccssscccs" />
    <path
       sodipodi:nodetypes="ssssccssscccs"
       inkscape:connector-curvature="0"
       id="path4099"
       d="m 697.74234,680.17908 c 0,115.97196 -147.27442,191.47151 -328.9466,191.47151 -181.6722,0 -328.946613,-75.49955 -328.946613,-191.47151 0,-52.891 30.632686,-82.7005 81.190493,-119.62179 5.19807,-3.79604 -157.243886,-170.30612 -157.243886,-170.30612 l 107.027469,0 c 0,0 125.743617,134.86812 139.386437,130.29488 45.63657,-15.29795 97.59314,-23.95334 152.71654,-23.95334 47.29822,0 92.2649,6.37242 132.90812,17.8457 9.64331,2.72225 175.18596,-124.18724 175.18596,-124.18724 l 92.50752,0 c 0,0 -161.69872,159.72068 -148.77805,169.00096 51.63108,37.08408 82.99261,67.41043 82.99261,120.92695 z"
       style="fill:#ffffff;stroke:#000000;stroke-width:8.41928196;stroke-miterlimit:4;stroke-opacity:1" />
    <path
       style="fill:#ffffff;stroke:#000000;stroke-width:7.57735395;stroke-miterlimit:4;stroke-opacity:1"
       d="m 664.33428,675.25626 c 0,104.37476 -132.54698,172.32436 -296.05194,172.32436 -163.50498,0 -296.05195,-67.9496 -296.05195,-172.32436 0,-47.6019 27.569417,-74.43045 73.07144,-107.65961 C 149.9801,564.18021 3.7823363,414.32114 3.7823363,414.32114 l 96.3247237,0 c 0,0 113.16925,121.38131 125.44779,117.26539 41.07291,-13.76815 87.83383,-21.558 137.44489,-21.558 42.5684,0 83.03841,5.73517 119.61731,16.06113 8.67897,2.45002 157.66736,-111.76852 157.66736,-111.76852 l 83.25677,0 c 0,0 -145.52885,143.74861 -133.90025,152.10086 46.46797,33.37568 74.69335,60.66939 74.69335,108.83426 z"
       id="path4101"
       inkscape:connector-curvature="0"
       sodipodi:nodetypes="ssssccssscccs" />
    <path
       sodipodi:nodetypes="ssssccssscccs"
       inkscape:connector-curvature="0"
       id="path4103"
       d="m 634.26703,670.82572 c 0,93.93729 -119.29228,155.09193 -266.44675,155.09193 -147.15448,0 -266.44675,-61.15464 -266.44675,-155.09193 0,-42.84171 24.81247,-66.9874 65.76429,-96.89365 C 171.34827,570.85728 39.770278,435.98411 39.770278,435.98411 l 86.692252,0 c 0,0 101.85232,109.24318 112.90301,105.53885 36.96562,-12.39133 79.05045,-19.4022 123.7004,-19.4022 38.31156,0 74.73457,5.16166 107.65558,14.45502 7.81107,2.20502 141.90062,-100.59167 141.90062,-100.59167 l 74.9311,0 c 0,0 -130.97597,129.37375 -120.51023,136.89078 41.82118,30.03811 67.22402,54.60245 67.22402,97.95083 z"
       style="fill:#ffffff;stroke:#000000;stroke-width:6.8196187;stroke-miterlimit:4;stroke-opacity:1" />
    <path
       style="fill:#ffffff;stroke:#000000;stroke-width:6.13765669;stroke-miterlimit:4;stroke-opacity:1"
       d="m 607.2065,666.83824 c 0,84.54356 -107.36305,139.58273 -239.80207,139.58273 -132.43903,0 -239.80208,-55.03917 -239.80208,-139.58273 0,-38.55754 22.33123,-60.28866 59.18786,-87.20429 C 190.57962,576.86664 72.159426,455.48079 72.159426,455.48079 l 78.023024,0 c 0,0 91.66709,98.31886 101.61271,94.98496 33.26906,-11.1522 71.14541,-17.46198 111.33036,-17.46198 34.48041,0 67.26111,4.6455 96.89002,13.00952 7.02997,1.98452 127.71056,-90.5325 127.71056,-90.5325 l 67.43799,0 c 0,0 -117.87837,116.43637 -108.45921,123.2017 37.63907,27.0343 60.50162,49.1422 60.50162,88.15575 z"
       id="path4105"
       inkscape:connector-curvature="0"
       sodipodi:nodetypes="ssssccssscccs" />
    <path
       sodipodi:nodetypes="ssssccssscccs"
       inkscape:connector-curvature="0"
       id="path4107"
       d="m 582.85203,663.2495 c 0,76.08921 -96.62675,125.62446 -215.82187,125.62446 -119.19512,0 -215.82187,-49.53525 -215.82187,-125.62446 0,-34.70178 20.09811,-54.25979 53.26907,-78.48386 3.41047,-2.49058 -103.1677,-111.73784 -103.1677,-111.73784 l 70.22072,0 c 0,0 82.50038,88.48697 91.45144,85.48646 29.94215,-10.03698 64.03087,-15.71578 100.19732,-15.71578 31.03237,0 60.535,4.18095 87.20102,11.70857 6.32697,1.78607 114.93951,-81.47925 114.93951,-81.47925 l 60.69419,0 c 0,0 -106.09054,104.79273 -97.61329,110.88153 33.87516,24.33087 54.45146,44.22798 54.45146,79.34017 z"
       style="fill:#ffffff;stroke:#000000;stroke-width:5.52389097;stroke-miterlimit:4;stroke-opacity:1" />
    <path
       style="fill:#ffffff;stroke:#000000;stroke-width:4.97150183;stroke-miterlimit:4;stroke-opacity:1"
       d="m 560.933,660.01964 c 0,68.48029 -86.96407,113.06201 -194.23968,113.06201 -107.27561,0 -194.23968,-44.58172 -194.23968,-113.06201 0,-31.2316 18.0883,-48.83381 47.94216,-70.63548 3.06942,-2.24152 -92.85093,-100.56405 -92.85093,-100.56405 l 63.19865,0 c 0,0 74.25034,79.63827 82.30629,76.93781 26.94794,-9.03328 57.62779,-14.1442 90.17759,-14.1442 27.92914,0 54.4815,3.76285 78.48092,10.53771 5.69427,1.60747 103.44556,-73.33132 103.44556,-73.33132 l 54.62477,0 c 0,0 -95.48149,94.31345 -87.85196,99.79337 30.48764,21.89779 49.00631,39.80519 49.00631,71.40616 z"
       id="path4109"
       inkscape:connector-curvature="0"
       sodipodi:nodetypes="ssssccssscccs" />
    <path
       sodipodi:nodetypes="ssssccssscccs"
       inkscape:connector-curvature="0"
       id="path4111"
       d="m 541.20588,657.11276 c 0,61.63226 -78.26767,101.75581 -174.81572,101.75581 -96.54805,0 -174.81571,-40.12355 -174.81571,-101.75581 0,-28.10844 16.27947,-43.95043 43.14795,-63.57193 2.76247,-2.01737 -83.56584,-90.50764 -83.56584,-90.50764 l 56.87878,0 c 0,0 66.82531,71.67444 74.07566,69.24403 24.25315,-8.12996 51.86502,-12.72978 81.15984,-12.72978 25.13622,0 49.03335,3.38656 70.63282,9.48393 5.12485,1.44673 93.10101,-65.99818 93.10101,-65.99818 l 49.16229,0 c 0,0 -85.93334,84.8821 -79.06676,89.81403 27.43887,19.70801 44.10568,35.82467 44.10568,64.26554 z"
       style="fill:#ffffff;stroke:#000000;stroke-width:4.47435188;stroke-miterlimit:4;stroke-opacity:1" />
    <path
       style="fill:#ffffff;stroke:#000000;stroke-width:4.0269165;stroke-miterlimit:4;stroke-opacity:1"
       d="m 543.45147,660.49657 c 0,55.46904 -92.44091,101.58023 -179.33415,101.58023 -86.89325,0 -175.33414,-48.11119 -175.33414,-103.58023 0,-25.29759 24.6515,-45.55542 48.83316,-63.21474 0.50206,-0.36665 -89.95945,-96.38405 -89.95945,-96.38405 L -130,333.79073 l 141.59798,-2 187.5724,144.68284 c 0,0 89.18395,102.31186 91.0957,101.67102 21.82784,-7.31694 46.67851,-11.45681 73.04385,-11.45681 22.6226,0 44.13005,3.04781 63.56954,8.53554 1.32811,0.37492 95.8931,-93.95538 95.8931,-93.95538 l 221.89781,-147.47721 116.24606,0 -289.03287,171.023 c 0,0 -77.78583,86.65256 -76.12721,87.84386 24.69498,17.73721 47.69511,42.2422 47.69511,67.83898 z"
       id="path4113"
       inkscape:connector-curvature="0"
       sodipodi:nodetypes="ssssccccssscccccs" />
  </g>
</svg>
